<mxfile host="app.diagrams.net" modified="2021-03-04T11:23:20.559Z" agent="5.0 (Macintosh; Intel Mac OS X 11_2_0) AppleWebKit/537.36 (KHTML, like Gecko) Chrome/88.0.4324.192 Safari/537.36" etag="tn_P8cwb3iQvLat2j9k8" version="14.4.3" type="github">
  <diagram id="uCWFq_bVd7A4nKqzksm2" name="第 1 页">
    <mxGraphModel dx="570" dy="266" grid="1" gridSize="10" guides="1" tooltips="1" connect="1" arrows="1" fold="1" page="1" pageScale="1" pageWidth="827" pageHeight="1169" math="0" shadow="0">
      <root>
        <mxCell id="0" />
        <mxCell id="1" parent="0" />
        <mxCell id="J--xHXi6j6w8ejpPS5Rf-1" value="" style="rounded=1;whiteSpace=wrap;html=1;" vertex="1" parent="1">
          <mxGeometry x="120" y="200" width="70" height="30" as="geometry" />
        </mxCell>
        <mxCell id="J--xHXi6j6w8ejpPS5Rf-2" value="开始/结束" style="text;html=1;strokeColor=none;fillColor=none;align=center;verticalAlign=middle;whiteSpace=wrap;rounded=0;" vertex="1" parent="1">
          <mxGeometry x="200" y="205" width="80" height="20" as="geometry" />
        </mxCell>
        <mxCell id="J--xHXi6j6w8ejpPS5Rf-3" value="" style="rounded=0;whiteSpace=wrap;html=1;" vertex="1" parent="1">
          <mxGeometry x="300" y="200" width="70" height="30" as="geometry" />
        </mxCell>
        <mxCell id="J--xHXi6j6w8ejpPS5Rf-4" value="流程" style="text;html=1;strokeColor=none;fillColor=none;align=center;verticalAlign=middle;whiteSpace=wrap;rounded=0;" vertex="1" parent="1">
          <mxGeometry x="390" y="205" width="80" height="20" as="geometry" />
        </mxCell>
        <mxCell id="J--xHXi6j6w8ejpPS5Rf-5" value="" style="shape=cylinder3;whiteSpace=wrap;html=1;boundedLbl=1;backgroundOutline=1;size=15;" vertex="1" parent="1">
          <mxGeometry x="500" y="190" width="40" height="50" as="geometry" />
        </mxCell>
        <mxCell id="J--xHXi6j6w8ejpPS5Rf-6" value="数据库" style="text;html=1;strokeColor=none;fillColor=none;align=center;verticalAlign=middle;whiteSpace=wrap;rounded=0;" vertex="1" parent="1">
          <mxGeometry x="560" y="205" width="80" height="20" as="geometry" />
        </mxCell>
        <mxCell id="J--xHXi6j6w8ejpPS5Rf-7" value="" style="rhombus;whiteSpace=wrap;html=1;" vertex="1" parent="1">
          <mxGeometry x="120" y="270" width="70" height="40" as="geometry" />
        </mxCell>
        <mxCell id="J--xHXi6j6w8ejpPS5Rf-8" value="判定" style="text;html=1;strokeColor=none;fillColor=none;align=center;verticalAlign=middle;whiteSpace=wrap;rounded=0;" vertex="1" parent="1">
          <mxGeometry x="200" y="280" width="80" height="20" as="geometry" />
        </mxCell>
        <mxCell id="J--xHXi6j6w8ejpPS5Rf-9" value="" style="shape=dataStorage;whiteSpace=wrap;html=1;fixedSize=1;size=18;" vertex="1" parent="1">
          <mxGeometry x="302" y="270" width="66" height="40" as="geometry" />
        </mxCell>
        <mxCell id="J--xHXi6j6w8ejpPS5Rf-10" value="外部数据" style="text;html=1;strokeColor=none;fillColor=none;align=center;verticalAlign=middle;whiteSpace=wrap;rounded=0;" vertex="1" parent="1">
          <mxGeometry x="390" y="280" width="80" height="20" as="geometry" />
        </mxCell>
        <mxCell id="J--xHXi6j6w8ejpPS5Rf-11" value="" style="shape=internalStorage;whiteSpace=wrap;html=1;backgroundOutline=1;dx=10;dy=10;" vertex="1" parent="1">
          <mxGeometry x="495" y="265" width="50" height="45" as="geometry" />
        </mxCell>
        <mxCell id="J--xHXi6j6w8ejpPS5Rf-12" value="内部数据" style="text;html=1;strokeColor=none;fillColor=none;align=center;verticalAlign=middle;whiteSpace=wrap;rounded=0;" vertex="1" parent="1">
          <mxGeometry x="560" y="277.5" width="80" height="20" as="geometry" />
        </mxCell>
      </root>
    </mxGraphModel>
  </diagram>
</mxfile>
